<svg xmlns="http://www.w3.org/2000/svg" width="18.5" height="14.389" viewBox="0 0 18.5 14.389">
  <path id="credit-card-regular" d="M16.444,33.542a.515.515,0,0,1,.514.514v1.028H1.542V34.056a.515.515,0,0,1,.514-.514Zm.514,4.625v6.167a.515.515,0,0,1-.514.514H2.056a.515.515,0,0,1-.514-.514V38.167ZM2.056,32A2.057,2.057,0,0,0,0,34.056V44.333a2.057,2.057,0,0,0,2.056,2.056H16.444A2.057,2.057,0,0,0,18.5,44.333V34.056A2.057,2.057,0,0,0,16.444,32Zm1.8,9.764a.771.771,0,0,0,0,1.542H5.4a.771.771,0,0,0,0-1.542Zm4.111,0a.771.771,0,0,0,0,1.542h3.6a.771.771,0,0,0,0-1.542Z" transform="translate(0 -32)" fill="#1b211e"/>
</svg>
