<svg xmlns="http://www.w3.org/2000/svg" width="16.422" height="14.37" viewBox="0 0 16.422 14.37">
  <path id="arrow-right-from-bracket-solid" d="M16.121,39.91a1.028,1.028,0,0,0,0-1.453l-4.106-4.106A1.027,1.027,0,0,0,10.562,35.8l2.354,2.354H6.158a1.026,1.026,0,0,0,0,2.053h6.758l-2.354,2.354a1.027,1.027,0,0,0,1.453,1.453l4.106-4.106ZM5.132,34.053a1.026,1.026,0,1,0,0-2.053H3.079A3.08,3.08,0,0,0,0,35.079V43.29A3.08,3.08,0,0,0,3.079,46.37H5.132a1.026,1.026,0,1,0,0-2.053H3.079A1.025,1.025,0,0,1,2.053,43.29V35.079a1.025,1.025,0,0,1,1.026-1.026Z" transform="translate(0 -32)" fill="#fcfcfc"/>
</svg>