<svg xmlns="http://www.w3.org/2000/svg" width="14.72" height="12.881" viewBox="0 0 14.72 12.881">
  <path id="comment-dots-solid" d="M7.309,43.958c4.065,0,7.359-2.676,7.359-5.979S11.373,32,7.309,32-.05,34.676-.05,37.979a5.239,5.239,0,0,0,1.371,3.475,4.185,4.185,0,0,1-.615,1.808,5.185,5.185,0,0,1-.437.621c-.06.072-.106.126-.141.164-.017.017-.029.032-.037.04L.082,44.1h0a.455.455,0,0,0-.1.5.46.46,0,0,0,.425.285,6.072,6.072,0,0,0,2.346-.555,8.614,8.614,0,0,0,1.561-.88,8.8,8.8,0,0,0,2.992.515Zm-3.68-6.9a.92.92,0,1,1-.92.92A.92.92,0,0,1,3.629,37.059Zm3.68,0a.92.92,0,1,1-.92.92A.92.92,0,0,1,7.309,37.059Zm2.76.92a.92.92,0,1,1,.92.92A.92.92,0,0,1,10.068,37.979Z" transform="translate(0.052 -32)" fill="#1b211e"/>
</svg>
